<?xml version="1.0" encoding="utf-8"?>
<!-- Generator: Adobe Illustrator 26.0.2, SVG Export Plug-In . SVG Version: 6.00 Build 0)  -->
<svg version="1.1" id="图层_1" xmlns="http://www.w3.org/2000/svg" xmlns:xlink="http://www.w3.org/1999/xlink" x="0px" y="0px"
	 viewBox="0 0 200 200" style="enable-background:new 0 0 200 200;" xml:space="preserve">
<path d="M82.8,41.3L31.3,92.8c-4,4-4,10.5,0,14.6l51.5,51.5c4,4,10.5,4,14.6,0s4-10.5,0-14.6l-33.9-33.9h98.7
	c5.7,0,10.3-4.6,10.3-10.3c0-5.7-4.6-10.3-10.3-10.3H63.5l33.9-33.9c2-2,3-4.6,3-7.3s-1-5.3-3-7.3C93.4,37.3,86.9,37.3,82.8,41.3
	L82.8,41.3z"/>
</svg>
