<svg xmlns="http://www.w3.org/2000/svg" height="24" viewBox="0 -960 960 960" width="24"><path d="m375.5-90-16-125q-2-.5-14.75-7.75T309-242.5l-115.5 48-105-182 101-76.5q-1-6.475-1-12.487V-480q0-6 .25-13t1.25-16L88.5-584.5l105-181 117 49q10-8 22.25-15t26.75-13l16-126.5h209l16 125q14 5.5 25.75 12.75T649-716.5l117.5-49 105 181-104 77.541q1 6.959 1 12.709v28.925q0 6.175-1.5 12.825l103 76-105 182-116-49q-9.5 7.5-20.75 14T600.5-215l-16 125h-209Zm64.788-75H518l14.5-106.5q30-8 55-22.75T634-331l99.5 42 38.5-67-87-65q4.5-14 6.5-28.84 2-14.841 2-30.16 0-15.5-1.75-29.75T685-539l87-66-37.5-67-101 43q-19.5-21-46-36.5t-55-23L519.571-796H441l-13.5 107q-32 8.5-56 22.25T324-630l-98.5-42-38.5 67 85.5 63.5q-5 16-7 30.5t-2 30.47q0 15.03 1.75 29.53 1.75 14.5 6.75 31l-85 64 38.576 67 97.924-42q23.5 23.5 48.75 38t55.25 22l12.788 106Zm39.443-180Q535.5-345 575-384.551q39.5-39.55 39.5-95.5 0-55.949-39.536-95.449Q535.429-615 479.5-615q-56.5 0-95.75 39.551-39.25 39.55-39.25 95.5 0 55.949 39.25 95.449t95.981 39.5Zm-.231-135.5Z"/></svg>