<svg id="注册" xmlns="http://www.w3.org/2000/svg" viewBox="0 0 54.36 54.36"><defs><style>.cls-1,.cls-2{fill:#ea5322;}.cls-1{opacity:0.3;}</style></defs><path class="cls-1" d="M52.21,41.5l-20.5-34C29.22,3,25.14,3,22.65,7.47l-20.5,34c-2.49,4.46-.39,8,4.6,8h41C52.6,49.51,54.7,45.83,52.21,41.5ZM25.28,17.72a2,2,0,0,1,3.94,0V31.51a2,2,0,1,1-3.94,0Zm1.83,24.17a2.77,2.77,0,0,1-2.75-2.76,2.76,2.76,0,1,1,5.51,0A2.77,2.77,0,0,1,27.11,41.89Z"/><path class="cls-2" d="M27.28,34.11a1.91,1.91,0,0,1-2-1.83V15.79a2,2,0,0,1,4,0V32.28A1.91,1.91,0,0,1,27.28,34.11Z"/><path class="cls-2" d="M24.29,39.13a2.83,2.83,0,1,0,2.82-2.82A2.83,2.83,0,0,0,24.29,39.13Z"/></svg>