<svg id="注册" xmlns="http://www.w3.org/2000/svg" viewBox="0 0 54.36 54.36"><defs><style>.cls-1{fill:#df6551;opacity:0.3;}.cls-2{fill:none;stroke:#3a68b1;stroke-miterlimit:10;}</style></defs><rect class="cls-1" x="19.39" y="17.27" width="6.79" height="16.1"/><rect class="cls-1" x="33.18" y="17.27" width="6.72" height="16.1"/><polyline class="cls-2" points="6.44 33.49 8.7 31.61 10.96 31.61 11.72 29.79 13.98 29.43 15.43 28.45 16.5 29.24 16.25 31.43 17.76 32.43 19.77 32.98 20.53 30.62 21.53 28.42 23.28 25.78 23.93 25.25 24.85 27.24 24.85 29.33 26.32 30.97 26.32 32.7 29.07 32.98 29.07 31.7 30.67 29.61 31.36 28.15 32.2 29 32.2 31.25 34.2 29.88 34.97 26.81 36.4 25.33 37.78 23.69 38.23 25.78 39.34 28.97 39.34 31.52 41 32.34 42.01 30.61 43.03 29.52 44.42 30.52 44.42 32.25 45.92 32.61"/></svg>