<?xml version="1.0" encoding="utf-8"?>
<!-- Generator: Adobe Illustrator 26.0.2, SVG Export Plug-In . SVG Version: 6.00 Build 0)  -->
<svg version="1.1" id="图层_1" xmlns="http://www.w3.org/2000/svg" xmlns:xlink="http://www.w3.org/1999/xlink" x="0px" y="0px"
	 viewBox="0 0 200 200" style="enable-background:new 0 0 200 200;" xml:space="preserve">
<path d="M159.2,82.5L107.7,31c-4-4-10.5-4-14.6,0L41.6,82.5c-4,4-4,10.5,0,14.6s10.5,4,14.6,0l33.9-33.9v98.7
	c0,5.7,4.6,10.3,10.3,10.3c5.7,0,10.3-4.6,10.3-10.3V63.2l33.9,33.9c2,2,4.6,3,7.3,3s5.3-1,7.3-3C163.2,93.1,163.2,86.6,159.2,82.5
	L159.2,82.5z"/>
</svg>
