<svg id="注册" xmlns="http://www.w3.org/2000/svg" viewBox="0 0 54.36 54.36"><defs><style>.cls-1{fill:none;stroke:#fff;stroke-miterlimit:10;}.cls-2{fill:#fff;}</style></defs><line class="cls-1" x1="10.69" y1="41.02" x2="9.69" y2="41.67"/><line class="cls-1" x1="11.68" y1="40.38" x2="10.69" y2="41.02"/><line class="cls-1" x1="12.68" y1="39.74" x2="11.68" y2="40.38"/><line class="cls-1" x1="13.68" y1="39.1" x2="12.68" y2="39.74"/><line class="cls-1" x1="14.68" y1="37.81" x2="13.68" y2="39.1"/><line class="cls-1" x1="15.68" y1="37.81" x2="14.68" y2="37.81"/><line class="cls-1" x1="16.68" y1="36.53" x2="15.68" y2="37.81"/><line class="cls-1" x1="17.68" y1="34.6" x2="16.68" y2="36.53"/><line class="cls-1" x1="18.68" y1="33.31" x2="17.68" y2="34.6"/><line class="cls-1" x1="19.68" y1="33.31" x2="18.68" y2="33.31"/><line class="cls-1" x1="20.68" y1="32.03" x2="19.68" y2="33.31"/><line class="cls-1" x1="21.68" y1="31.39" x2="20.68" y2="32.03"/><line class="cls-1" x1="22.68" y1="30.74" x2="21.68" y2="31.39"/><line class="cls-1" x1="23.68" y1="30.1" x2="22.68" y2="30.74"/><line class="cls-1" x1="24.68" y1="29.46" x2="23.68" y2="30.1"/><line class="cls-1" x1="25.68" y1="29.46" x2="24.68" y2="29.46"/><line class="cls-1" x1="26.68" y1="28.17" x2="25.68" y2="29.46"/><line class="cls-1" x1="27.68" y1="28.17" x2="26.68" y2="28.17"/><line class="cls-1" x1="28.68" y1="28.17" x2="27.68" y2="28.17"/><line class="cls-1" x1="29.68" y1="27.53" x2="28.68" y2="28.17"/><line class="cls-1" x1="30.68" y1="26.89" x2="29.68" y2="27.53"/><line class="cls-1" x1="31.68" y1="26.89" x2="30.68" y2="26.89"/><line class="cls-1" x1="32.68" y1="26.24" x2="31.68" y2="26.89"/><line class="cls-1" x1="33.68" y1="26.24" x2="32.68" y2="26.24"/><line class="cls-1" x1="34.68" y1="24.96" x2="33.68" y2="26.24"/><line class="cls-1" x1="35.68" y1="23.67" x2="34.68" y2="24.96"/><line class="cls-1" x1="36.68" y1="21.1" x2="35.68" y2="23.67"/><line class="cls-1" x1="37.68" y1="20.46" x2="36.68" y2="21.1"/><line class="cls-1" x1="38.68" y1="17.89" x2="37.68" y2="20.46"/><line class="cls-1" x1="39.68" y1="16.61" x2="38.68" y2="17.89"/><line class="cls-1" x1="40.68" y1="14.68" x2="39.68" y2="16.61"/><line class="cls-1" x1="41.68" y1="12.75" x2="40.68" y2="14.68"/><line class="cls-1" x1="42.68" y1="10.18" x2="41.68" y2="12.75"/><circle class="cls-2" cx="42.18" cy="10.78" r="1.29"/><circle class="cls-2" cx="10.19" cy="41.35" r="1.29"/></svg>