<?xml version="1.0" encoding="utf-8"?>
<!-- Generator: Adobe Illustrator 26.0.2, SVG Export Plug-In . SVG Version: 6.00 Build 0)  -->
<svg version="1.1" id="图层_1" xmlns="http://www.w3.org/2000/svg" xmlns:xlink="http://www.w3.org/1999/xlink" x="0px" y="0px"
	 viewBox="0 0 200 200" style="enable-background:new 0 0 200 200;" xml:space="preserve">
<path d="M41.6,117.7l51.5,51.5c4,4,10.5,4,14.6,0l51.5-51.5c4-4,4-10.5,0-14.6s-10.5-4-14.6,0L110.7,137V38.3
	c0-5.7-4.6-10.3-10.3-10.3c-5.7,0-10.3,4.6-10.3,10.3V137l-33.9-33.9c-2-2-4.6-3-7.3-3s-5.3,1-7.3,3
	C37.6,107.1,37.6,113.6,41.6,117.7L41.6,117.7z"/>
</svg>
