<svg id="注册" xmlns="http://www.w3.org/2000/svg" xmlns:xlink="http://www.w3.org/1999/xlink" viewBox="0 0 54.36 54.36"><defs><style>.cls-1{fill:url(#未命名的渐变_6);}.cls-2{fill:none;stroke:#fff;stroke-miterlimit:10;}.cls-3{fill:#fff;}</style><linearGradient id="未命名的渐变_6" x1="27.11" y1="43.4" x2="27.11" y2="13.34" gradientUnits="userSpaceOnUse"><stop offset="0" stop-color="#fff"/><stop offset="0.2" stop-color="#fcfdfe"/><stop offset="0.35" stop-color="#f2f5f9"/><stop offset="0.48" stop-color="#e2e8f2"/><stop offset="0.61" stop-color="#cbd5e8"/><stop offset="0.72" stop-color="#aebddb"/><stop offset="0.83" stop-color="#8a9fcb"/><stop offset="0.94" stop-color="#607db8"/><stop offset="1" stop-color="#4567ac"/></linearGradient></defs><polyline class="cls-1" points="11.4 43.4 16.84 37.95 19.05 35.69 20.76 32.82 23.62 27.65 25.7 24.91 31.35 20.31 32.8 18.36 35.47 18.36 38.39 15.52 40.82 14.9 42.83 13.34 42.82 18.36 42.74 21.83 42.71 27.26 42.62 43.4"/><line class="cls-2" x1="13.61" y1="41.03" x2="12.4" y2="42.18"/><line class="cls-2" x1="14.82" y1="39.88" x2="13.61" y2="41.03"/><line class="cls-2" x1="16.02" y1="38.73" x2="14.82" y2="39.88"/><line class="cls-2" x1="17.23" y1="37.58" x2="16.02" y2="38.73"/><line class="cls-2" x1="18.44" y1="35.27" x2="17.23" y2="37.58"/><line class="cls-2" x1="19.65" y1="35.27" x2="18.44" y2="35.27"/><line class="cls-2" x1="20.86" y1="32.97" x2="19.65" y2="35.27"/><line class="cls-2" x1="22.07" y1="29.52" x2="20.86" y2="32.97"/><line class="cls-2" x1="23.28" y1="27.22" x2="22.07" y2="29.52"/><line class="cls-2" x1="24.49" y1="27.22" x2="23.28" y2="27.22"/><line class="cls-2" x1="25.7" y1="24.91" x2="24.49" y2="27.22"/><line class="cls-2" x1="26.91" y1="23.76" x2="25.7" y2="24.91"/><line class="cls-2" x1="28.11" y1="22.61" x2="26.91" y2="23.76"/><line class="cls-2" x1="29.32" y1="21.46" x2="28.11" y2="22.61"/><line class="cls-2" x1="30.53" y1="20.31" x2="29.32" y2="21.46"/><line class="cls-2" x1="31.74" y1="20.31" x2="30.53" y2="20.31"/><line class="cls-2" x1="32.95" y1="18.01" x2="31.74" y2="20.31"/><line class="cls-2" x1="34.16" y1="18.01" x2="32.95" y2="18.01"/><line class="cls-2" x1="35.37" y1="18.01" x2="34.16" y2="18.01"/><line class="cls-2" x1="36.58" y1="16.86" x2="35.37" y2="18.01"/><line class="cls-2" x1="37.79" y1="15.71" x2="36.58" y2="16.86"/><line class="cls-2" x1="39" y1="15.71" x2="37.79" y2="15.71"/><line class="cls-2" x1="40.2" y1="14.55" x2="39" y2="15.71"/><line class="cls-2" x1="41.41" y1="14.55" x2="40.2" y2="14.55"/><line class="cls-2" x1="42.62" y1="12.25" x2="41.41" y2="14.55"/><circle class="cls-3" cx="42.62" cy="12.25" r="1.29"/><circle class="cls-3" cx="11.72" cy="42.68" r="1.29"/></svg>